<svg xmlns="http://www.w3.org/2000/svg" width="1200" height="630" viewBox="0 0 1200 630">
  <defs>
    <linearGradient id="bg" x1="0%" y1="0%" x2="100%" y2="100%">
      <stop offset="0%" stop-color="#0d1b2e"/>
      <stop offset="100%" stop-color="#1a3d6b"/>
    </linearGradient>
    <linearGradient id="lf" x1="100%" y1="0%" x2="20%" y2="0%">
      <stop offset="0%"   stop-color="#0d1b2e" stop-opacity="0"/>
      <stop offset="55%"  stop-color="#0d1b2e" stop-opacity="0.82"/>
      <stop offset="100%" stop-color="#0d1b2e" stop-opacity="1"/>
    </linearGradient>
    <linearGradient id="bf" x1="0%" y1="0%" x2="0%" y2="100%">
      <stop offset="0%"   stop-color="#1a3d6b" stop-opacity="0"/>
      <stop offset="100%" stop-color="#0d1b2e" stop-opacity="0.9"/>
    </linearGradient>
  </defs>

  <!-- Background -->
  <rect width="1200" height="630" fill="url(#bg)"/>

  <!-- Pattern -->
  
    <rect x="570" y="185" width="560" height="30" rx="15"
      fill="#60a5fa" fill-opacity="0.07"
      stroke="#60a5fa" stroke-width="1" stroke-opacity="0.25"/>
    <rect x="570" y="185" width="4" height="30" rx="2" fill="#60a5fa" fill-opacity="0.5"/>
    <circle cx="1115" cy="200" r="5" fill="#60a5fa" fill-opacity="0.3"/>
  
    <rect x="630" y="243" width="400" height="30" rx="15"
      fill="#60a5fa" fill-opacity="0.11000000000000001"
      stroke="#60a5fa" stroke-width="1" stroke-opacity="0.25"/>
    <rect x="630" y="243" width="4" height="30" rx="2" fill="#60a5fa" fill-opacity="0.5"/>
    <circle cx="1015" cy="258" r="5" fill="#60a5fa" fill-opacity="0.3"/>
  
    <rect x="600" y="301" width="470" height="30" rx="15"
      fill="#60a5fa" fill-opacity="0.15000000000000002"
      stroke="#60a5fa" stroke-width="1" stroke-opacity="0.25"/>
    <rect x="600" y="301" width="4" height="30" rx="2" fill="#60a5fa" fill-opacity="0.5"/>
    <circle cx="1055" cy="316" r="5" fill="#60a5fa" fill-opacity="0.3"/>
  
    <rect x="690" y="359" width="240" height="30" rx="15"
      fill="#60a5fa" fill-opacity="0.07"
      stroke="#60a5fa" stroke-width="1" stroke-opacity="0.25"/>
    <rect x="690" y="359" width="4" height="30" rx="2" fill="#60a5fa" fill-opacity="0.5"/>
    <circle cx="915" cy="374" r="5" fill="#60a5fa" fill-opacity="0.3"/>
  
    <rect x="650" y="417" width="320" height="30" rx="15"
      fill="#60a5fa" fill-opacity="0.11000000000000001"
      stroke="#60a5fa" stroke-width="1" stroke-opacity="0.25"/>
    <rect x="650" y="417" width="4" height="30" rx="2" fill="#60a5fa" fill-opacity="0.5"/>
    <circle cx="955" cy="432" r="5" fill="#60a5fa" fill-opacity="0.3"/>
  
    <rect x="700" y="475" width="190" height="30" rx="15"
      fill="#60a5fa" fill-opacity="0.15000000000000002"
      stroke="#60a5fa" stroke-width="1" stroke-opacity="0.25"/>
    <rect x="700" y="475" width="4" height="30" rx="2" fill="#60a5fa" fill-opacity="0.5"/>
    <circle cx="875" cy="490" r="5" fill="#60a5fa" fill-opacity="0.3"/>
  
    <rect x="770" y="475" width="130" height="30" rx="15"
      fill="#60a5fa" fill-opacity="0.07"
      stroke="#60a5fa" stroke-width="1" stroke-opacity="0.25"/>
    <rect x="770" y="475" width="4" height="30" rx="2" fill="#60a5fa" fill-opacity="0.5"/>
    <circle cx="885" cy="490" r="5" fill="#60a5fa" fill-opacity="0.3"/>
  

  <!-- Left & bottom fade overlays -->
  <rect width="1200" height="630" fill="url(#lf)"/>
  <rect width="1200" height="630" fill="url(#bf)"/>

  <!-- Category badge -->
  <rect x="60" y="52" width="78" height="32" rx="16"
    fill="#60a5fa" fill-opacity="0.15"
    stroke="#60a5fa" stroke-width="1" stroke-opacity="0.5"/>
  <text x="74" y="73"
    font-family="system-ui,-apple-system,Segoe UI,sans-serif"
    font-size="13" font-weight="700" letter-spacing="2.5"
    fill="#60a5fa" fill-opacity="0.95">INFRA</text>

  <!-- Title -->
  
  <text x="60" y="516"
    font-family="system-ui,-apple-system,Segoe UI,sans-serif"
    font-size="46" font-weight="800"
    fill="white" fill-opacity="0.95">ELK 스택</text>
  <text x="60" y="568"
    font-family="system-ui,-apple-system,Segoe UI,sans-serif"
    font-size="46" font-weight="800"
    fill="white" fill-opacity="0.95">로그 수집부터 시각화까지</text>
</svg>