<svg xmlns="http://www.w3.org/2000/svg" width="1200" height="630" viewBox="0 0 1200 630">
  <defs>
    <linearGradient id="bg" x1="0%" y1="0%" x2="100%" y2="100%">
      <stop offset="0%" stop-color="#1a1033"/>
      <stop offset="100%" stop-color="#3b1f7a"/>
    </linearGradient>
    <linearGradient id="lf" x1="100%" y1="0%" x2="20%" y2="0%">
      <stop offset="0%"   stop-color="#1a1033" stop-opacity="0"/>
      <stop offset="55%"  stop-color="#1a1033" stop-opacity="0.82"/>
      <stop offset="100%" stop-color="#1a1033" stop-opacity="1"/>
    </linearGradient>
    <linearGradient id="bf" x1="0%" y1="0%" x2="0%" y2="100%">
      <stop offset="0%"   stop-color="#3b1f7a" stop-opacity="0"/>
      <stop offset="100%" stop-color="#1a1033" stop-opacity="0.9"/>
    </linearGradient>
  </defs>

  <!-- Background -->
  <rect width="1200" height="630" fill="url(#bg)"/>

  <!-- Pattern -->
  
    <rect x="564" y="158" width="550" height="400" rx="14"
      fill="#c4b5fd" fill-opacity="0.04" stroke="#c4b5fd" stroke-width="1" stroke-opacity="0.2"/>
    <rect x="564" y="158" width="550" height="38" rx="14"
      fill="#c4b5fd" fill-opacity="0.1"/>
    <rect x="564" y="184" width="550" height="12" fill="#c4b5fd" fill-opacity="0.1"/>
    <circle cx="596" cy="177" r="6" fill="#c4b5fd" fill-opacity="0.35"/>
    <circle cx="616" cy="177" r="6" fill="#c4b5fd" fill-opacity="0.25"/>
    <circle cx="636" cy="177" r="6" fill="#c4b5fd" fill-opacity="0.18"/>
    
      <rect x="592" y="208" width="400" height="10" rx="5"
        fill="#c4b5fd" fill-opacity="0.14"/>
    
      <rect x="628" y="240" width="280" height="10" rx="5"
        fill="#c4b5fd" fill-opacity="0.09"/>
    
      <rect x="628" y="272" width="340" height="10" rx="5"
        fill="#c4b5fd" fill-opacity="0.07"/>
    
      <rect x="664" y="304" width="190" height="10" rx="5"
        fill="#c4b5fd" fill-opacity="0.14"/>
    
      <rect x="664" y="336" width="260" height="10" rx="5"
        fill="#c4b5fd" fill-opacity="0.09"/>
    
      <rect x="628" y="368" width="140" height="10" rx="5"
        fill="#c4b5fd" fill-opacity="0.07"/>
    
      <rect x="592" y="400" width="90" height="10" rx="5"
        fill="#c4b5fd" fill-opacity="0.14"/>
    
      <rect x="592" y="432" width="360" height="10" rx="5"
        fill="#c4b5fd" fill-opacity="0.09"/>
    
      <rect x="628" y="464" width="240" height="10" rx="5"
        fill="#c4b5fd" fill-opacity="0.07"/>
    
      <rect x="628" y="496" width="310" height="10" rx="5"
        fill="#c4b5fd" fill-opacity="0.14"/>
    
      <rect x="592" y="528" width="110" height="10" rx="5"
        fill="#c4b5fd" fill-opacity="0.09"/>
    
    <rect x="592" y="528" width="12" height="20" rx="2"
      fill="#c4b5fd" fill-opacity="0.5"/>
  

  <!-- Left & bottom fade overlays -->
  <rect width="1200" height="630" fill="url(#lf)"/>
  <rect width="1200" height="630" fill="url(#bf)"/>

  <!-- Category badge -->
  <rect x="60" y="52" width="108" height="32" rx="16"
    fill="#c4b5fd" fill-opacity="0.15"
    stroke="#c4b5fd" stroke-width="1" stroke-opacity="0.5"/>
  <text x="74" y="73"
    font-family="system-ui,-apple-system,Segoe UI,sans-serif"
    font-size="13" font-weight="700" letter-spacing="2.5"
    fill="#c4b5fd" fill-opacity="0.95">FRONTEND</text>

  <!-- Title -->
  
  <text x="60" y="516"
    font-family="system-ui,-apple-system,Segoe UI,sans-serif"
    font-size="40" font-weight="800"
    fill="white" fill-opacity="0.95">TypeScript의 any와</text>
  <text x="60" y="562"
    font-family="system-ui,-apple-system,Segoe UI,sans-serif"
    font-size="40" font-weight="800"
    fill="white" fill-opacity="0.95">unknown, 실제 안정성 차이는 무엇일까</text>
</svg>